<svg width="550.000000" height="391.986176" viewBox="0 0 550 391.986" fill="none" xmlns="http://www.w3.org/2000/svg" xmlns:xlink="http://www.w3.org/1999/xlink">
	<desc>
			Created with Pixso.
	</desc>
	<defs/>
	<rect id="画板 1" width="550.000000" height="385.571167" transform="translate(0.000000 0.000011)" fill="#FFFFFF" fill-opacity="0"/>
	<path id="path4" d="M213.87 34.02C277.76 0.09 346.53 -6.94 402.77 6.2C530.84 36.46 540.93 132.74 472.77 232.08C441.59 277.63 395.43 321.33 339.81 348.84C248.41 394.08 161 396.53 103.53 361.68C45.76 326.84 32.01 268.15 52.49 205.8C73.58 141 132.57 74.36 213.87 34.02Z" fill="#FC966E" fill-opacity="1.000000" fill-rule="evenodd"/>
	<path id="path6" d="M415 107.68C414.69 111.35 414.69 115.02 415.3 118.68C415.91 122.66 416.83 126.94 418.36 130.91C420.5 136.72 423.56 141.91 426.92 146.19C429.97 150.17 433.64 153.22 437.92 155.67C443.12 157.81 448.01 159.03 451.98 158.72C455.34 158.72 457.79 157.81 459.62 156.28C460.85 155.06 461.76 153.22 462.07 150.78C462.68 147.42 462.07 143.14 461.15 137.63C460.85 136.11 460.54 134.88 460.23 133.36C459.93 132.13 459.32 130.6 459.01 129.38C456.26 122.35 452.59 115.93 448.01 111.04C444.03 106.76 439.14 103.71 433.95 102.18C428.45 100.65 423.86 100.65 420.5 101.87C418.36 102.79 416.53 104.32 415.61 106.76L415 107.68ZM412.55 21.48C439.75 11.4 466.65 13.54 489.58 24.85C513.42 36.46 532.67 58.16 542.76 85.37C548.57 100.65 550.71 116.54 549.79 131.52C548.87 146.8 544.9 161.48 537.56 174.62C537.26 175.23 536.95 176.15 536.04 177.37C535.43 178.59 534.81 179.51 534.51 180.12C523.5 198.15 512.2 211.3 500.89 220.77C489.27 230.25 477.96 236.36 466.65 240.64C438.84 251.03 411.33 248.89 388.1 237.58C363.65 225.66 344.08 204.27 334 176.76C328.5 161.78 325.74 146.8 326.36 132.44C326.97 117.77 330.33 103.71 336.75 90.56C341.64 80.78 349.28 69.47 359.37 58.77C368.23 49.3 378.93 40.13 390.85 32.18C393.91 30.04 397.27 28.21 400.63 26.38C405.22 24.54 408.88 22.71 412.55 21.48Z" fill="#FFFFFF" fill-opacity="1.000000" fill-rule="nonzero"/>
	<path id="path8" d="M285.4 71.61L331.86 54.19C336.14 52.66 340.72 54.8 342.25 59.08C342.25 59.39 342.56 59.39 342.56 59.69L408.58 236.06C409.19 236.97 409.5 238.2 409.5 239.42C409.8 241.86 408.88 244.31 407.05 245.84L385.35 267.54C384.43 268.46 383.51 269.07 382.29 269.37L344.08 283.43C341.64 284.35 338.89 284.04 336.75 282.51L293.65 253.78L301.9 275.49C302.51 276.71 303.13 278.24 303.13 279.76C303.13 281.9 302.21 284.04 300.68 285.27L278.98 306.97C278.06 307.89 277.15 308.5 276.23 308.8L229.46 326.22C225.18 327.75 220.6 325.61 219.07 321.33L152.44 143.14C151.22 139.77 152.13 136.11 154.88 133.97L175.97 112.88C176.89 111.96 177.81 111.35 179.03 111.04L219.68 96.06C222.13 95.15 224.88 95.45 227.02 96.98L266.75 122.96L259.42 103.4C258.2 100.34 259.11 96.98 261.25 94.84L282.65 73.14C283.56 72.53 284.48 71.92 285.4 71.61Z" fill="#FFFFFF" fill-opacity="1.000000" fill-rule="nonzero"/>
	<path id="A黑" d="M60.68 381L43 169.45L134 136.5L258 306.5L180 337L151.5 289L134 295.5L138.5 339L111.7 363.02L60.68 381Z" fill="#000000" fill-opacity="1.000000" fill-rule="evenodd"/>
	<path id="A黑" d="M136.92 126.93L40.27 161.93L34.51 164.02L53.57 391.98L115.86 370.04L146.87 342.23L142.59 300.84L148.02 298.82L176.58 346.92L270.57 310.17L136.92 126.93ZM151.5 289L180 337L250.29 309.51L258 306.5L253.12 299.81L134 136.5L43 169.45L59.99 372.76L60.68 381L68.48 378.25L111.7 363.02L138.5 339L134 295.5L151.5 289Z" fill="#FFFFFF" fill-opacity="1.000000" fill-rule="evenodd"/>
	<path id="polygon12" d="M341.33 275.79L277.45 233.3L294.57 279.76L294.87 279.76L273.17 301.16L226.41 318.89L159.77 140.69L181.48 118.99L222.43 104.01L282.65 143.44L266.75 100.96L288.15 79.25L334.61 61.83L401.55 240.03L379.85 261.73L341.33 275.79Z" fill="#000000" fill-opacity="1.000000" fill-rule="evenodd"/>
	<path id="path14" d="M415.61 29.13C466.65 10.18 517.09 38.91 535.43 88.12C546.12 116.54 543.98 147.11 530.84 171.26C530.23 172.79 529.31 174.31 528.4 175.84C507.31 210.69 485.6 225.05 464.51 233C411.94 252.56 360.9 223.22 342.25 174.01C331.86 145.89 332.78 118.38 344.7 94.23C353.25 76.81 371.9 54.8 396.05 38.91C401.85 34.93 408.58 31.57 415.61 29.13ZM407.05 106.15C407.05 105.85 407.36 105.54 407.36 105.24C410.72 94.23 421.72 90.87 435.48 94.54C449.54 98.2 460.23 111.35 466.04 126.63C467.26 129.69 468.18 132.74 468.79 136.11C471.54 148.64 470.32 157.5 465.12 162.39C459.01 168.2 447.7 168.51 434.86 163C424.17 157.2 415.91 146.5 411.02 133.66C407.36 124.49 406.13 115.02 407.05 106.15Z" fill="#000000" fill-opacity="1.000000" fill-rule="evenodd"/>
	<path id="polygon16" d="M259.72 185.62L294.57 279.76L247.8 297.19L181.48 118.99L222.43 104.01L321.77 168.81L288.15 79.25L334.61 61.83L401.55 240.03L363.04 254.09L259.72 185.62Z" fill="#000000" fill-opacity="1.000000" fill-rule="evenodd"/>
	<path id="polygon18" d="M247.19 170.03L286.93 276.1L251.47 289.24L189.42 122.66L221.52 110.74L334 184.4L296.1 82.92L330.94 69.78L393.6 236.36L363.65 247.37L247.19 170.03Z" fill="#FFFFFF" fill-opacity="1.000000" fill-rule="evenodd"/>
	<path id="polygon20" d="M301.6 85.37L328.5 75.28L387.79 233.92L364.26 242.47L238.63 159.03L281.42 273.65L254.22 283.74L194.92 125.41L220.91 115.63L342.56 195.1L301.6 85.37Z" fill="#E799B0" fill-opacity="1.000000" fill-rule="evenodd"/>
	<path id="path22" d="M415.61 29.13C466.65 10.18 517.09 38.91 535.43 88.12C553.76 137.33 534.51 192.35 483.77 211.3C432.72 230.25 382.29 201.52 363.95 152.31C345.31 102.79 364.56 48.08 415.61 29.13ZM432.42 74.06C406.74 83.53 402.16 109.82 411.02 133.66C419.89 157.2 440.37 174.01 466.35 164.53C492.02 154.75 496.61 128.77 487.74 104.93C478.57 81.39 458.09 64.58 432.42 74.06Z" fill="#000000" fill-opacity="1.000000" fill-rule="evenodd"/>
	<path id="path24" d="M417.75 34.93C465.43 17.21 512.5 44.1 529.92 90.56C547.04 136.72 529.31 188.07 481.63 206.1C433.95 223.83 386.88 196.63 369.45 150.47C352.34 104.01 369.76 52.66 417.75 34.93ZM430.28 68.25C401.24 78.95 395.13 108.9 405.22 135.8C415.3 162.7 439.14 181.04 468.49 170.34C497.52 159.34 503.64 129.69 493.55 103.1C483.16 76.2 459.32 57.55 430.28 68.25Z" fill="#FFFFFF" fill-opacity="1.000000" fill-rule="evenodd"/>
	<path id="path26" d="M428.75 64.28C459.01 52.97 485.91 71 497.22 101.26C508.53 131.52 499.97 162.7 469.71 174.01C439.45 185.32 412.25 167.28 400.94 137.02C389.63 107.07 398.49 75.59 428.75 64.28ZM419.28 38.91C463.9 22.1 509.14 46.85 525.95 91.79C542.76 136.72 524.73 185.01 480.41 201.52C435.78 218.02 390.54 193.57 373.73 148.64C356.62 103.71 374.34 55.41 419.28 38.91Z" fill="#576690" fill-opacity="1.000000" fill-rule="evenodd"/>
	<path id="A白" d="M86 349.5L72.5 166.5L134.5 143L243.5 292.5L201 308L120.5 204.5L132 333L86 349.5Z" fill="#FFFFFF" fill-opacity="1.000000" fill-rule="evenodd"/>
	<path id="A白" d="" fill="#FFFFFF" fill-opacity="0" fill-rule="evenodd"/>
	<rect id="A黄-" x="93.999969" y="253.445389" width="88.000000" height="38.046242" transform="rotate(-17.4886 93.999969 253.445389)" fill="#DB7D74" fill-opacity="1.000000"/>
	<rect id="A黄-" x="97.449280" y="255.241867" width="82.500000" height="32.546242" transform="rotate(-17.4886 97.449280 255.241867)" stroke="#FFFFFF" stroke-opacity="1.000000" stroke-width="5.500000"/>
	<path id="A黄" d="M90 344L77 169.5L133 148.5L236.5 290L202 302.5L115.5 191L127.5 330L90 344Z" fill="#DB7D74" fill-opacity="1.000000" fill-rule="evenodd"/>
	<path id="A黄" d="" fill="#FFFFFF" fill-opacity="0" fill-rule="evenodd"/>
	<path id="path36" d="M273.78 102.18L290.59 85.06L300.07 110.43L283.26 127.55L273.78 102.18ZM286.32 136.11L303.13 118.99L306.79 128.46L289.98 145.58L286.32 136.11Z" fill="#58585A" fill-opacity="1.000000" fill-rule="evenodd"/>
	<path id="path42" d="M453.2 96.98L470.32 79.87C476.43 84.76 481.63 91.79 485.3 99.73L468.49 116.54C464.82 109.21 459.62 102.18 453.2 96.98ZM472.15 124.8L488.66 107.99C489.88 111.65 490.49 115.02 491.11 118.68L474.91 134.88L474.91 134.58C474.29 131.52 473.38 128.16 472.15 124.8Z" fill="#58585A" fill-opacity="1.000000" fill-rule="evenodd"/>
	<path id="path40" d="M47.5 174.5L68.49 167.5L71.33 196.61L50.16 205.37L47.5 174.5ZM51.48 213.92L71.66 205.16L72.3 214.73L52.13 223.49L51.48 213.92Z" fill="#58585A" fill-opacity="1.000000" fill-rule="evenodd"/>
</svg>
